<?xml version="1.0" standalone="no"?>
<!DOCTYPE svg PUBLIC "-//W3C//DTD SVG 20010904//EN"
 "http://www.w3.org/TR/2001/REC-SVG-20010904/DTD/svg10.dtd">
<svg version="1.0" xmlns="http://www.w3.org/2000/svg"
 width="510.000000pt" height="506.000000pt" viewBox="0 0 510.000000 506.000000"
 preserveAspectRatio="xMidYMid meet">

<g transform="translate(0.000000,506.000000) scale(0.100000,-0.100000)"
fill="#000000" stroke="none">
<path d="M2775 4548 c-132 -98 -240 -183 -240 -187 0 -5 54 -51 121 -103 l120
-95 119 88 118 88 56 -44 c31 -24 343 -268 694 -542 l638 -498 239 3 c132 1
240 6 240 10 -1 4 -396 314 -878 690 -482 375 -902 702 -932 726 l-56 44 -239
-180z"/>
<path d="M1573 3649 l-693 -518 0 -1141 0 -1140 1668 2 1667 3 3 425 2 425
-161 85 c-88 47 -165 86 -170 88 -5 2 -10 -150 -11 -360 l-3 -363 -1333 -3
-1332 -3 2 927 3 928 645 479 c355 263 646 481 648 486 1 4 -26 29 -60 56 -35
27 -90 70 -123 95 l-60 47 -692 -518z"/>
</g>
</svg>
